<?xml version="1.0" encoding="iso-8859-1"?>
<!-- Generator: Adobe Illustrator 19.0.0, SVG Export Plug-In . SVG Version: 6.00 Build 0)  -->
<svg version="1.1" id="Capa_1" xmlns="http://www.w3.org/2000/svg" xmlns:xlink="http://www.w3.org/1999/xlink" x="0px" y="0px"
	 viewBox="0 0 512 512" style="enable-background:new 0 0 512 512;" xml:space="preserve">
<path style="fill:#136EF1;" d="M150,134.993c0-8.291-6.709-15-15-15c-101.877,0-83.263,0.015-105-0.033
	c-16.569,0-30,14.372-30,30.941v14.092c0,24.814,20.186,45,45,45h90c8.291,0,15-6.709,15-15V134.993z"/>
<path style="fill:#FEDB41;" d="M347,30H135c-8.401,0-15,6.601-15,15v422c0,8.401,6.599,15,15,15h212c8.401,0,15-6.599,15-15V45
	C362,36.601,355.401,30,347,30z"/>
<path style="fill:#994C0F;" d="M499.999,30.3l-150-30C340.401-1.5,332,5.7,332,15v482c0,9.3,8.401,16.5,17.999,14.7l150-30
	C506.901,480.2,512,474.2,512,467V45C512,37.8,506.901,31.8,499.999,30.3z"/>
<path style="fill:#FE9923;" d="M120,255h242v212c0,8.401-6.599,15-15,15H135c-8.401,0-15-6.599-15-15V255z"/>
<path style="fill:#17ACE8;" d="M300,255c0,3.9-1.5,7.5-4.501,10.501l-90,90C196.8,365.101,180,358.5,180,345v-15H45
	c-24.901,0-45-20.099-45-45V150.901c0,2.699,0.3,5.7,1.199,8.099c0,0.3,0,0.601,0.3,0.901C4.2,171,15.3,180,28.2,180
	c0,0,148.2,0,151.8,0v-15c0-13.5,16.5-20.099,25.499-10.499l90,90C298.5,247.5,300,251.1,300,255z"/>
<path style="fill:#1689FC;" d="M0,255h300c0,3.9-1.5,7.5-4.501,10.501l-90,90C196.8,365.101,180,358.5,180,345v-15H45
	c-24.901,0-45-20.099-45-45V255z"/>
<path style="fill:#713708;" d="M512,255v212c0,7.2-5.099,13.2-12.001,14.7l-150,30C340.401,513.5,332,506.3,332,497V255H512z"/>
<path style="fill:#E1E4FB;" d="M422,225v60c0,8.401-6.599,15-15,15s-15-6.599-15-15v-60c0-8.399,6.599-15,15-15S422,216.601,422,225
	z"/>
<path style="fill:#C5C9F7;" d="M422,255v30c0,8.401-6.599,15-15,15s-15-6.599-15-15v-30H422z"/>
<g>
</g>
<g>
</g>
<g>
</g>
<g>
</g>
<g>
</g>
<g>
</g>
<g>
</g>
<g>
</g>
<g>
</g>
<g>
</g>
<g>
</g>
<g>
</g>
<g>
</g>
<g>
</g>
<g>
</g>
</svg>
