<?xml version="1.0" encoding="iso-8859-1"?>
<!-- Generator: Adobe Illustrator 19.0.0, SVG Export Plug-In . SVG Version: 6.00 Build 0)  -->
<svg version="1.1" id="Capa_1" xmlns="http://www.w3.org/2000/svg" xmlns:xlink="http://www.w3.org/1999/xlink" x="0px" y="0px"
	 viewBox="0 0 512 512" style="enable-background:new 0 0 512 512;" xml:space="preserve">
<path style="fill:#17ACE8;" d="M257,0C116.3,0,0,114.3,0,255s116.3,257,257,257s255-116.3,255-257S397.7,0,257,0z"/>
<path style="fill:#1689FC;" d="M512,255c0,140.7-114.3,257-255,257V0C397.7,0,512,114.3,512,255z"/>
<path style="fill:#E1E4FB;" d="M287,421.878c0,16.5-13.5,30-30,30s-30-13.5-30-30s13.5-30,30-30S287,405.378,287,421.878z"/>
<path style="fill:#C5C9F7;" d="M287,421.878c0,16.5-13.5,30-30,30v-60C273.5,391.878,287,405.378,287,421.878z"/>
<path style="fill:#E1E4FB;" d="M347,164.878c0,28.5-13.801,55.8-36.899,72.599c-15,11.1-23.101,24.901-23.101,39.6v22.8
	c0,16.5-13.5,30-30,30s-30-13.5-30-30v-22.8c0-26.4,10.499-51.601,30-72.001c5.099-5.7,11.1-11.1,17.701-15.899
	c23.399-17.1,11.1-54.3-17.701-54.3c-16.5,0-30,13.5-30,30s-13.5,30-30,30s-30-13.5-30-30c0-49.501,40.499-90,90-90
	S347,115.377,347,164.878z"/>
<path style="fill:#C5C9F7;" d="M347,164.878c0,28.5-13.801,55.8-36.899,72.599c-15,11.1-23.101,24.901-23.101,39.6v22.8
	c0,16.5-13.5,30-30,30v-124.8c5.099-5.7,11.1-11.1,17.701-15.899c23.399-17.1,11.1-54.3-17.701-54.3v-60
	C306.501,74.878,347,115.377,347,164.878z"/>
<g>
</g>
<g>
</g>
<g>
</g>
<g>
</g>
<g>
</g>
<g>
</g>
<g>
</g>
<g>
</g>
<g>
</g>
<g>
</g>
<g>
</g>
<g>
</g>
<g>
</g>
<g>
</g>
<g>
</g>
</svg>
