<?xml version="1.0" encoding="iso-8859-1"?>
<!-- Generator: Adobe Illustrator 19.0.0, SVG Export Plug-In . SVG Version: 6.00 Build 0)  -->
<svg version="1.1" id="Capa_1" xmlns="http://www.w3.org/2000/svg" xmlns:xlink="http://www.w3.org/1999/xlink" x="0px" y="0px"
	 viewBox="0 0 512.001 512.001" style="enable-background:new 0 0 512.001 512.001;" xml:space="preserve">
<path style="fill:#E1E4FB;" d="M447.442,256.5L267.496,76.554c-2.698-3-6.597-4.5-10.496-4.5c-3.899,0-7.798,1.5-10.496,4.5
	L64.558,256.5c-2.998,2.698-4.5,6.597-4.5,10.496v229.933c0,8.396,6.597,14.996,14.996,14.996h107.268l72.276-92.273l2.401,4.997
	l74.377,87.275h105.57c8.399,0,14.996-6.599,14.996-14.996V266.996C451.942,263.097,450.442,259.198,447.442,256.5z"/>
<path style="fill:#C5C9F7;" d="M451.942,266.996v229.933c0,8.396-6.597,14.996-14.996,14.996h-105.57L257,424.649V72.054
	c3.899,0,7.798,1.5,10.496,4.5L447.442,256.5C450.442,259.198,451.942,263.097,451.942,266.996z"/>
<path style="fill:#A8AFF1;" d="M426.374,192.756l-59.982-59.689c-2.841-2.812-4.423-6.648-4.423-10.632V44.763
	c0-8.289,6.707-14.996,14.996-14.996h59.982c8.289,0,14.996,6.707,14.996,14.996v137.361
	C451.942,195.585,435.714,202.049,426.374,192.756z"/>
<path style="fill:#17ACE8;" d="M257,179.723c-32.989,0-59.982,26.991-59.982,59.982c0,32.989,26.993,59.982,59.982,59.982
	s59.982-26.993,59.982-59.982C316.982,206.714,289.989,179.723,257,179.723z"/>
<path style="fill:#994C0F;" d="M316.982,329.678H197.018c-8.398,0-14.996,6.597-14.996,14.996v167.25h149.955v-167.25
	C331.978,336.275,325.381,329.678,316.982,329.678z"/>
<path style="fill:#1689FC;" d="M316.982,239.704c0-32.991-26.993-59.982-59.982-59.982c0,2.949,0,122.902,0,119.964
	C289.989,299.687,316.982,272.694,316.982,239.704z"/>
<path style="fill:#FD003A;" d="M498.73,222.91c-36.888-36.89-173.05-173.35-209.938-209.938C280.394,4.574,268.697,0.076,257,0.076
	c-11.698,0-23.394,4.498-31.793,12.896L13.27,222.91c-17.694,17.394-17.694,46.185,0,63.581c17.397,17.694,46.187,17.694,63.585,0
	C87.648,275.993,68.655,296.687,257,108.344c176.048,176.048,178.446,178.447,178.446,178.447c17.397,16.495,45.587,16.495,62.984,0
	c0.3,0,0.3,0,0.3-0.3C516.424,269.095,516.424,240.303,498.73,222.91z"/>
<path style="fill:#DD0030;" d="M498.73,286.491c0,0.3,0,0.3-0.3,0.3c-17.397,16.495-45.587,16.495-62.984,0
	c0,0-2.398-2.4-178.446-178.447V0.076c11.697,0,23.394,4.498,31.793,12.896C325.681,49.561,461.842,186.02,498.73,222.91
	C516.424,240.303,516.424,269.095,498.73,286.491z"/>
<path style="fill:#713708;" d="M331.978,344.674v167.25H257V329.678h59.982C325.381,329.678,331.978,336.275,331.978,344.674z"/>
<g>
</g>
<g>
</g>
<g>
</g>
<g>
</g>
<g>
</g>
<g>
</g>
<g>
</g>
<g>
</g>
<g>
</g>
<g>
</g>
<g>
</g>
<g>
</g>
<g>
</g>
<g>
</g>
<g>
</g>
</svg>
