<?xml version="1.0" encoding="iso-8859-1"?>
<!-- Generator: Adobe Illustrator 19.0.0, SVG Export Plug-In . SVG Version: 6.00 Build 0)  -->
<svg version="1.1" id="Capa_1" xmlns="http://www.w3.org/2000/svg" xmlns:xlink="http://www.w3.org/1999/xlink" x="0px" y="0px"
	 viewBox="0 0 512 512" style="enable-background:new 0 0 512 512;" xml:space="preserve">
<path style="fill:#FEA832;" d="M257,0C116.3,0,0,114.3,0,255s116.3,257,257,257s255-116.3,255-257S397.7,0,257,0z"/>
<path style="fill:#FE9923;" d="M512,255c0,140.7-114.3,257-255,257V0C397.7,0,512,114.3,512,255z"/>
<path style="fill:#E1E4FB;" d="M287,240v152c0,16.5-13.5,30-30,30s-30-13.5-30-30V240c0-16.5,13.5-30,30-30S287,223.5,287,240z"/>
<path style="fill:#C5C9F7;" d="M287,240v152c0,16.5-13.5,30-30,30V210C273.5,210,287,223.5,287,240z"/>
<path style="fill:#E1E4FB;" d="M287,120c0,16.5-13.5,30-30,30s-30-13.5-30-30s13.5-30,30-30S287,103.5,287,120z"/>
<path style="fill:#C5C9F7;" d="M257,150V90c16.5,0,30,13.5,30,30S273.5,150,257,150z"/>
<g>
</g>
<g>
</g>
<g>
</g>
<g>
</g>
<g>
</g>
<g>
</g>
<g>
</g>
<g>
</g>
<g>
</g>
<g>
</g>
<g>
</g>
<g>
</g>
<g>
</g>
<g>
</g>
<g>
</g>
</svg>
