<?xml version="1.0" encoding="iso-8859-1"?>
<!-- Generator: Adobe Illustrator 19.0.0, SVG Export Plug-In . SVG Version: 6.00 Build 0)  -->
<svg version="1.1" id="Capa_1" xmlns="http://www.w3.org/2000/svg" xmlns:xlink="http://www.w3.org/1999/xlink" x="0px" y="0px"
	 viewBox="0 0 512.001 512.001" style="enable-background:new 0 0 512.001 512.001;" xml:space="preserve">
<path style="fill:#FEA832;" d="M353.373,207.001c-3.296-6.301-6.599-12.001-10.496-17.401c-3.303-4.2-6.599-7.8-10.203-11.4
	c-3.6-3.6-7.2-6.899-11.396-10.199l-34.277,24l-38.924,49.501c5.402-5.7,15.597-5.402,21.299,0c5.702,5.999,5.702,15.599,0,21.599
	l-153.652,154.7c-5.999,5.7-15.597,5.7-21.599,0c-5.698-6-5.698-15.601,0-21.601l80.149-81.2l13.502-13.499
	c4.501-4.501,5.702-11.102,2.999-16.802c-13.499-28.799-7.5-62.999,14.7-85.499c3.003-2.699,4.501-6.599,4.501-10.499
	s-1.498-7.8-4.501-10.501c-5.698-6-15.3-6-20.999,0L30.828,332.9c-41.104,40.8-41.104,107.401,0,148.2
	c19.798,19.799,46.198,30.901,74.1,30.901c27.898,0,54.298-11.102,74.099-30.901l153.648-154.7
	C364.176,295.201,372.277,247.2,353.373,207.001z"/>
<g>
	<path style="fill:#FD003A;" d="M481.173,29.7c-39.598-39.599-108.596-39.599-148.198,0L184.476,178.2
		c-31.501,31.201-39.602,79.2-20.698,119.401c3.296,6.299,6.599,11.999,10.496,17.399c3.303,4.2,6.599,7.8,10.203,11.4
		c3.6,3.6,7.328,7.301,11.524,10.601l33-29l40.374-44.9h-0.3c-5.402,5.4-15.597,5.4-21.299,0c-5.702-6-5.702-15.601,0-21.599h0.3
		l73.202-73.5l75-75c5.999-5.7,15.597-5.7,21.599,0c5.698,6,5.698,15.599,0,21.599l-75,75c3.896,5.4,7.2,11.1,10.496,17.401
		c18.904,40.199,10.803,88.2-20.698,119.399l148.499-148.5C522.277,137.1,522.277,70.501,481.173,29.7z"/>
	<path style="fill:#FD003A;" d="M196.001,337.001l73.374-73.9h-0.3c-5.218,5.216-14.897,5.378-20.69,0.516l-63.34,63.34
		C188.458,330.338,192.024,333.875,196.001,337.001z"/>
</g>
<path style="fill:#DD0030;" d="M418.397,93.605c5.156,6.024,4.994,15.189-0.519,20.995l-75,75c3.896,5.4,7.2,11.1,10.496,17.4
	c18.904,40.199,10.803,88.2-20.698,119.399l148.499-148.5c40.914-40.612,41.096-106.782,0.559-147.631L418.397,93.605z"/>
<path style="fill:#FE9923;" d="M342.877,189.6c-3.13-3.98-6.261-7.418-9.646-10.83l-63.336,63.336
	c5.159,6.022,4.997,15.188-0.52,20.994L115.724,417.801c-5.985,5.688-15.553,5.698-21.558,0.035l-63.3,63.3
	c19.793,19.777,46.177,30.865,74.062,30.865c27.898,0,54.298-11.102,74.099-30.901l153.648-154.7
	c31.501-31.199,39.602-79.2,20.698-119.399C350.077,200.7,346.774,195,342.877,189.6z"/>
<g>
</g>
<g>
</g>
<g>
</g>
<g>
</g>
<g>
</g>
<g>
</g>
<g>
</g>
<g>
</g>
<g>
</g>
<g>
</g>
<g>
</g>
<g>
</g>
<g>
</g>
<g>
</g>
<g>
</g>
</svg>
