<?xml version="1.0" encoding="iso-8859-1"?>
<!-- Generator: Adobe Illustrator 19.0.0, SVG Export Plug-In . SVG Version: 6.00 Build 0)  -->
<svg version="1.1" id="Capa_1" xmlns="http://www.w3.org/2000/svg" xmlns:xlink="http://www.w3.org/1999/xlink" x="0px" y="0px"
	 viewBox="0 0 512.001 512.001" style="enable-background:new 0 0 512.001 512.001;" xml:space="preserve">
<path style="fill:#A8AFF1;" d="M375.226,375.298c-6,5.7-15.3,5.7-21.301,0l-42.299-42.599c-6-5.7-6-15.3,0-21
	c5.698-6,15.298-6,20.999,0L375.226,354C380.926,360,380.926,369.3,375.226,375.298z"/>
<path style="fill:#C5C9F7;" d="M375.226,375.298c-6,5.7-15.3,5.7-21.301,0l-42.299-42.599c-6-5.7-6-15.3,0-21L375.226,375.298z"/>
<path style="fill:#FE9923;" d="M332.624,56.999C296.025,20.099,246.825,0,194.925,0c-52.2,0-101.1,20.099-138.001,56.999
	c-75.899,76.199-75.899,199.801,0,275.7c76.201,76.199,199.501,76.199,275.7,0c36.901-36.599,57.301-85.8,57.301-137.699
	C389.925,142.798,369.526,93.898,332.624,56.999z"/>
<path style="fill:#FEA832;" d="M332.624,332.699c-76.199,76.199-199.499,76.199-275.7,0c-75.899-75.899-75.899-199.501,0-275.7
	L332.624,332.699z"/>
<path style="fill:#713708;" d="M500.78,437.236l-86.254-86.238c-16.201-16.199-43.2-14.399-60.601,3.001
	c-17.401,17.699-18.9,44.7-2.999,60.599l86.254,86.238c15.901,16.199,43.2,14.399,60.601-2.999c8.099-8.101,13.2-18.9,14.099-29.702
	C512.781,456.437,508.58,445.037,500.78,437.236z"/>
<path style="fill:#994C0F;" d="M497.781,497.837c-17.401,17.399-44.7,19.199-60.601,2.999l-86.254-86.238
	c-15.901-15.899-14.401-42.9,2.999-60.599L497.781,497.837z"/>
<path style="fill:#C5C9F7;" d="M290.325,99.598c-52.5-52.798-138.3-52.798-190.8,0c-52.8,52.5-52.8,138.001,0,190.801
	c26.1,26.4,60.899,39.6,95.4,39.6c34.499,0,69-13.2,95.4-39.6C342.825,237.599,342.825,152.098,290.325,99.598z"/>
<path style="fill:#E1E4FB;" d="M99.526,99.598l190.8,190.801c-26.4,26.4-60.901,39.6-95.4,39.6c-34.501,0-69.3-13.2-95.4-39.6
	C46.725,237.599,46.725,152.098,99.526,99.598z"/>
<g>
</g>
<g>
</g>
<g>
</g>
<g>
</g>
<g>
</g>
<g>
</g>
<g>
</g>
<g>
</g>
<g>
</g>
<g>
</g>
<g>
</g>
<g>
</g>
<g>
</g>
<g>
</g>
<g>
</g>
</svg>
