<?xml version="1.0" encoding="iso-8859-1"?>
<!-- Generator: Adobe Illustrator 19.0.0, SVG Export Plug-In . SVG Version: 6.00 Build 0)  -->
<svg version="1.1" id="Capa_1" xmlns="http://www.w3.org/2000/svg" xmlns:xlink="http://www.w3.org/1999/xlink" x="0px" y="0px"
	 viewBox="0 0 512 512" style="enable-background:new 0 0 512 512;" xml:space="preserve">
<path style="fill:#1689FC;" d="M179.18,247.596c-1.963-17.168-9.785-32.959-22.031-44.458c-7.665-7.135-5.745-19.715,3.545-24.36
	L311.2,102.686c9.448-4.661,20.448,1.473,21.621,11.719c1.963,17.168,9.785,32.959,22.031,44.458
	c7.665,7.135,5.745,19.715-3.545,24.36l-150.506,76.092C191.496,263.967,180.363,257.931,179.18,247.596z"/>
<path style="fill:#136EF1;" d="M311.199,409.314l-150.506-74.092c-9.29-4.645-11.21-17.225-3.545-24.36
	c12.246-11.499,20.068-27.29,22.031-44.458c1.182-10.323,12.289-16.385,21.621-11.719l150.506,74.092
	c9.29,4.645,11.21,17.225,3.545,24.36c-12.246,11.499-20.068,27.29-22.031,44.458C331.637,407.931,320.504,413.967,311.199,409.314z
	"/>
<path style="fill:#17ACE8;" d="M407,0c-57.898,0-105,47.1-105,105c0,58.5,47.402,105,105,105c57.898,0,105-47.1,105-105
	S464.898,0,407,0z"/>
<path style="fill:#1689FC;" d="M407,302c-54.302,0-98.101,41.1-103.799,91.5C293.599,451.399,341.001,512,407,512
	c57.898,0,105-47.1,105-105S464.898,302,407,302z"/>
<path style="fill:#17ACE8;" d="M209.099,244.1C202.8,190.699,157.2,152,105,152C47.102,152,0,199.1,0,257s47.102,105,105,105
	C172.2,362,218.401,300.2,209.099,244.1z"/>
<path style="fill:#1689FC;" d="M105,362c62.082,0,105.646-52.731,104.68-105H0C0,314.9,47.102,362,105,362z"/>
<g>
</g>
<g>
</g>
<g>
</g>
<g>
</g>
<g>
</g>
<g>
</g>
<g>
</g>
<g>
</g>
<g>
</g>
<g>
</g>
<g>
</g>
<g>
</g>
<g>
</g>
<g>
</g>
<g>
</g>
</svg>
